<svg xmlns="http://www.w3.org/2000/svg" width="25.971" height="162.394" viewBox="0 0 25.971 162.394">
  <g id="Group_1247" data-name="Group 1247" transform="translate(-47 -196)">
    <g id="Group_1" data-name="Group 1" transform="translate(47 196)">
      <path id="Path_1" data-name="Path 1" d="M4.1,22.5v1.855H8.358L2.25,30.463l1.312,1.312L9.67,25.667V29.92h1.855V22.5Z" transform="translate(-2.25 -5.806)" fill="#fff"/>
      <path id="Path_2" data-name="Path 2" d="M27,23.625h1.855v4.637H27Z" transform="translate(-6.596 -6.003)" fill="#fff"/>
      <path id="Path_3" data-name="Path 3" d="M22.5,18h1.855v9.275H22.5Z" transform="translate(-5.806 -5.016)" fill="#fff"/>
      <path id="Path_4" data-name="Path 4" d="M18,20.25h1.855v7.42H18Z" transform="translate(-5.016 -5.411)" fill="#fff"/>
      <path id="Path_5" data-name="Path 5" d="M26.364,2.25H4.1A1.857,1.857,0,0,0,2.25,4.1V15.234H4.1V12.452H26.36V26.364H15.234v1.855h11.13a1.857,1.857,0,0,0,1.855-1.855V4.1a1.857,1.857,0,0,0-1.855-1.85ZM11.525,10.6H4.1V4.1h7.42Zm1.855,0V4.1H26.364v6.5Z" transform="translate(-2.25 -2.25)" fill="#fff"/>
    </g>
    <g id="Group_2" data-name="Group 2" transform="translate(47 233)">
      <path id="Path_6" data-name="Path 6" d="M24.965,21.278h-.018a.839.839,0,0,1-.787-.608L21.5,11.385l-1.621,4.323a.838.838,0,0,1-.783.544H15.75V14.577h2.77l2.31-6.158a.838.838,0,0,1,1.59.063l2.606,9.124,1.658-4.97a.837.837,0,0,1,.8-.572H30.83v1.675H28.081l-2.322,6.967A.836.836,0,0,1,24.965,21.278Z" transform="translate(-4.86 -7.037)" fill="#fff"/>
      <path id="Path_7" data-name="Path 7" d="M12.853,30.3H11.177V24.439a2.515,2.515,0,0,0-2.513-2.513H5.313A2.515,2.515,0,0,0,2.8,24.439V30.3H1.125V24.439A4.194,4.194,0,0,1,5.313,20.25H8.664a4.194,4.194,0,0,1,4.188,4.189Z" transform="translate(-1.125 -10.198)" fill="#fff"/>
      <path id="Path_8" data-name="Path 8" d="M7.563,8.425A2.513,2.513,0,1,1,5.05,10.939,2.513,2.513,0,0,1,7.563,8.425m0-1.675a4.189,4.189,0,1,0,4.188,4.189A4.189,4.189,0,0,0,7.563,6.75Z" transform="translate(-1.7 -6.75)" fill="#fff"/>
    </g>
    <g id="Group_3" data-name="Group 3" transform="translate(48.746 264)">
      <path id="Path_9" data-name="Path 9" d="M29.227,14.46V26.92a3.232,3.232,0,0,1-3.371,3.071H10.121a3.232,3.232,0,0,1-3.371-3.07V6.446a3.232,3.232,0,0,1,3.371-3.071h6.936a2.364,2.364,0,0,1,1.588.6l9.922,9.038a1.96,1.96,0,0,1,.658,1.447Z" transform="translate(-6.75 -3.375)" fill="none" stroke="#fff" stroke-linejoin="round" stroke-width="1.7"/>
      <path id="Path_10" data-name="Path 10" d="M18,3.938v8.429a2.248,2.248,0,0,0,2.248,2.248h8.429" transform="translate(-6.762 -3.376)" fill="none" stroke="#fff" stroke-linecap="round" stroke-linejoin="round" stroke-width="1.7"/>
      <path id="Path_11" data-name="Path 11" d="M12.375,20.25H23.613" transform="translate(-6.756 -4.258)" fill="none" stroke="#fff" stroke-linecap="round" stroke-linejoin="round" stroke-width="1.7"/>
      <path id="Path_12" data-name="Path 12" d="M12.375,25.875H23.613" transform="translate(-6.756 -4.264)" fill="none" stroke="#fff" stroke-linecap="round" stroke-linejoin="round" stroke-width="1.7"/>
    </g>
    <path id="Path_13" data-name="Path 13" d="M21.093,27.047a3.548,3.548,0,0,1-.752-.083A25.486,25.486,0,0,1,7.85,20.388,24.584,24.584,0,0,1,1.086,8.175,3.442,3.442,0,0,1,2.1,4.958L5.107,2.064a1.47,1.47,0,0,1,2.247.248l3.758,5.554a1.2,1.2,0,0,1-.083,1.428L9.143,11.549a14.235,14.235,0,0,0,3.134,4.427,14.475,14.475,0,0,0,4.562,3.074l2.337-1.856a1.233,1.233,0,0,1,1.4-.09l5.674,3.668a1.5,1.5,0,0,1,.308,2.337l-2.931,2.9a3.562,3.562,0,0,1-2.533,1.037ZM6.144,3.146,3.138,6.04a1.909,1.909,0,0,0-.564,1.8A23.074,23.074,0,0,0,8.9,19.313,23.975,23.975,0,0,0,20.65,25.5a2.067,2.067,0,0,0,1.879-.556l2.931-2.9L19.981,18.5l-2.51,2a.752.752,0,0,1-.691.128,15.077,15.077,0,0,1-5.532-3.57,14.648,14.648,0,0,1-3.66-5.411.752.752,0,0,1,.18-.714L9.8,8.505Z" transform="translate(45.987 331.347)" fill="#fff"/>
    <g id="Group_4" data-name="Group 4" transform="translate(48.746 303)">
      <path id="Path_14" data-name="Path 14" d="M4.284,6.141a9.834,9.834,0,0,0,0,13.908.7.7,0,1,1-.993.993,11.239,11.239,0,0,1,0-15.894.7.7,0,0,1,.993.993ZM7.265,9.122a5.619,5.619,0,0,0,0,7.946.7.7,0,0,1-1,.995,7.024,7.024,0,0,1,0-9.935.7.7,0,1,1,.995,1Zm7.946-.995a.7.7,0,0,1,1,0,7.024,7.024,0,0,1,0,9.935.7.7,0,1,1-.995-1,5.619,5.619,0,0,0,0-7.946.7.7,0,0,1,0-.995Zm2.981-2.978a.7.7,0,0,1,.993,0,11.239,11.239,0,0,1,0,15.893.7.7,0,1,1-.993-.993,9.834,9.834,0,0,0,0-13.908.7.7,0,0,1,0-.993Z" transform="translate(0.001 -4.942)" fill="#fff" fill-rule="evenodd"/>
      <path id="Path_15" data-name="Path 15" d="M19.119,16.31a2.81,2.81,0,1,1-2.81-2.81A2.81,2.81,0,0,1,19.119,16.31Z" transform="translate(-5.07 -8.157)" fill="#fff"/>
      <path id="Path_16" data-name="Path 16" d="M17.577,19.125a.7.7,0,0,1,.7.7v9.131a.7.7,0,1,1-1.4,0V19.827a.7.7,0,0,1,.7-.7Z" transform="translate(-6.338 -10.27)" fill="#fff" fill-rule="evenodd"/>
    </g>
  </g>
</svg>
